# generated from PmQm by Jehee Lee
:FULLY-SPECIFIED
:DEGREES
230
root 52.6931 39.206 -40.8833 9.00726 -77.4258 -8.16223
RightUpLeg -4.60759 6.28963 9.74514
RightLeg 13.3516 -0.027913 -1.42836
RightFoot -10.4198 -0.032821 -4.66485
RightToes -0.000541893 -0.000659172 -0.000493268
Spine 2.51186 1.54915 1.84737
Spine1 5.125 2.9417 1.94253
HEad 13.6515 -6.01639 -3.08955
LeftShoulder1 -3.88251e-019 -0 -3.92111e-022
LeftArm -31.223 -3.90372 -86.7366
LeftForeArm 36.993 0.67691 -3.37014
LeftHand -0.934148 -4.5313 11.1953
RightShoulder 7.45443e-017 -2.42657e-020 1.96277e-018
RightArm -24.484 -7.29798 72.2178
RightForeArm 32.3364 3.60557 6.9819
RightHand -1.22048 9.94347 -9.59552
LeftUpLeg -23.4787 -2.37851 2.16758
LeftLeg 30.3274 9.55586 6.33363
LeftFoot -1.41777 -0.433817 5.09239
LeftToes 3.91355e-005 3.11907e-005 -4.10385e-006
231
root 51.9471 39.2215 -40.5452 12.1306 -79.139 -10.9487
RightUpLeg -3.14987 5.52879 9.41616
RightLeg 12.3903 2.37804 -0.454896
RightFoot -11.4142 -0.0796847 -3.70815
RightToes -0.000541893 -0.000659172 -0.000493268
Spine 2.32284 1.52091 1.6107
Spine1 4.73289 2.8925 2.47752
HEad 13.9142 -5.08678 -3.88137
LeftShoulder1 -3.88251e-019 -0 -3.92111e-022
LeftArm -31.6863 -3.2763 -87.7407
LeftForeArm 40.0414 2.3313 -2.68334
LeftHand -0.857217 -4.13534 10.6964
RightShoulder 7.45443e-017 -2.42657e-020 1.96277e-018
RightArm -24.0519 -7.45869 72.3387
RightForeArm 32.7909 4.35661 7.64599
RightHand -1.1858 10.0258 -9.28885
LeftUpLeg -22.9556 -1.07319 1.71953
LeftLeg 19.0776 5.81264 2.59494
LeftFoot 1.59017 -0.485176 4.23866
LeftToes 3.91355e-005 3.11907e-005 -4.10385e-006
232
root 51.1732 39.2444 -40.2296 14.7728 -80.3058 -13.2369
RightUpLeg -1.69837 5.00294 9.07715
RightLeg 11.433 3.97318 0.122665
RightFoot -12.1543 -0.10805 -3.65234
RightToes -0.000541893 -0.000659172 -0.000493268
Spine 2.17278 1.37697 1.24514
Spine1 4.3678 2.69697 2.87715
HEad 14.0123 -4.27523 -4.48035
LeftShoulder1 -3.88251e-019 -0 -3.92111e-022
LeftArm -32.0606 -2.51954 -88.5419
LeftForeArm 42.1164 2.16085 -2.03043
LeftHand -0.659162 -3.87077 8.52536
RightShoulder 7.45443e-017 -2.42657e-020 1.96277e-018
RightArm -23.8361 -7.83241 72.4719
RightForeArm 32.8469 4.8391 8.13668
RightHand -1.17089 10.0711 -9.15241
LeftUpLeg -21.6032 0.0806117 0.740055
LeftLeg 7.21817 3.19094 0.921954
LeftFoot 6.0569 -0.278545 1.60693
LeftToes 3.91355e-005 3.11907e-005 -4.10385e-006
233
root 50.2534 39.1317 -39.8743 18.5424 -81.093 -16.6335
RightUpLeg -0.76957 4.99927 9.07031
RightLeg 12.0735 4.69843 0.518921
RightFoot -13.4501 -0.179938 -4.75679
RightToes -0.000541893 -0.000659172 -0.000493268
Spine 1.90198 1.20057 1.17314
Spine1 3.77461 2.39738 3.35776
HEad 14.2029 -3.55673 -4.85587
LeftShoulder1 -3.88251e-019 -0 -3.92111e-022
LeftArm -32.7317 -1.52515 -88.8491
LeftForeArm 42.9908 1.95296 -1.06632
LeftHand -0.588842 -4.09158 7.48435
RightShoulder 7.45443e-017 -2.42657e-020 1.96277e-018
RightArm -24.0182 -8.1899 72.6828
RightForeArm 33.184 4.72279 8.20882
RightHand -1.15682 10.0263 -9.07228
LeftUpLeg -21.3796 -0.380162 0.313235
LeftLeg 1.05245 4.21822 1.00063
LeftFoot 6.6758 -0.0357298 -0.0561147
LeftToes 3.91355e-005 3.11907e-005 -4.10385e-006
234
root 49.1681 39.0025 -39.5212 20.2321 -81.4712 -18.1303
RightUpLeg 0.657244 4.79743 8.98837
RightLeg 12.6926 5.02126 0.737749
RightFoot -14.8755 -0.276012 -5.67038
RightToes -0.000541893 -0.000659172 -0.000493268
Spine 1.6542 0.991032 1.23047
Spine1 3.26011 1.97151 3.52398
HEad 14.5072 -3.10806 -4.94421
LeftShoulder1 -3.88251e-019 -0 -3.92111e-022
LeftArm -33.7025 -0.363189 -88.505
LeftForeArm 43.0296 1.8034 0.0766321
LeftHand -0.665984 -4.26046 8.28378
RightShoulder 7.45443e-017 -2.42657e-020 1.96277e-018
RightArm -24.5256 -8.77235 73.0523
RightForeArm 33.4401 4.34661 7.6984
RightHand -1.14888 9.88255 -9.09237
LeftUpLeg -21.3393 -0.734356 -0.0211638
LeftLeg 0.557422 5.14524 1.17566
LeftFoot 4.60233 -0.00925333001 -0.131485
LeftToes 3.91355e-005 3.11907e-005 -4.10385e-006
